<svg id="Layer_1" data-name="Layer 1" xmlns="http://www.w3.org/2000/svg" viewBox="0 0 1280 621"><defs><style>.cls-1{font-size:50px;font-family:ProximaNova-Medium, Proxima Nova;font-weight:500;}.cls-2{letter-spacing:-0.04em;}.cls-3{letter-spacing:-0.03em;}.cls-4{letter-spacing:-0.01em;}.cls-5,.cls-6{fill:red;stroke:#000;}.cls-5,.cls-6,.cls-7,.cls-8,.cls-9{stroke-miterlimit:10;}.cls-6{stroke-width:2px;}.cls-7,.cls-8,.cls-9{fill:none;stroke:#3fa9f5;stroke-width:3px;}.cls-8{stroke-dasharray:12.25 12.25;}.cls-9{stroke-dasharray:12;}.cls-10{fill:#22b573;}.cls-11{font-size:20px;}.cls-11,.cls-14{font-family:ProximaNova-Semibold, Proxima Nova;font-weight:600;}.cls-12{fill:#f7931e;}.cls-13{fill:#fcee21;}.cls-14{font-size:18px;}.cls-15{letter-spacing:-0.03em;}.cls-16{letter-spacing:0em;}</style></defs><text class="cls-1" transform="translate(148.76 111.37)">0xa5d3c...</text><text class="cls-1" transform="translate(511.58 111.27)">0<tspan class="cls-2" x="30.7" y="0">x</tspan><tspan x="53.45" y="0">dcm6</tspan><tspan class="cls-3" x="177.95" y="0">9</tspan><tspan x="206.35" y="0">...</tspan></text><text class="cls-1" transform="translate(939.11 111.27)">0xa420<tspan class="cls-4" x="170.55" y="0">b</tspan><tspan x="199.15" y="0">...</tspan></text><line class="cls-5" x1="264" y1="196" x2="164" y2="196"/><line class="cls-6" x1="264" y1="198" x2="264" y2="348"/><line class="cls-6" x1="264" y1="350" x2="264" y2="500"/><line class="cls-7" x1="1047" y1="351" x2="1041.36" y2="353.06"/><line class="cls-8" x1="1029.86" y1="357.25" x2="644.39" y2="497.85"/><line class="cls-7" x1="638.64" y1="499.94" x2="633" y2="502"/><line class="cls-5" x1="264" y1="350.5" x2="164" y2="350.5"/><line class="cls-9" x1="632.5" y1="198.5" x2="263.5" y2="348.5"/><circle class="cls-10" cx="264" cy="196" r="47.5"/><path d="M264,151a45,45,0,1,1-45,45,45.05,45.05,0,0,1,45-45m0-5a50,50,0,1,0,50,50,50,50,0,0,0-50-50Z"/><text class="cls-11" transform="translate(81.02 184.09)">Balance: 5LX</text><circle class="cls-10" cx="264" cy="348" r="47.5"/><path d="M264,303a45,45,0,1,1-45,45,45.05,45.05,0,0,1,45-45m0-5a50,50,0,1,0,50,50,50,50,0,0,0-50-50Z"/><text class="cls-11" transform="translate(69.12 339.09)">Balance: 25LX</text><line class="cls-5" x1="264" y1="502.5" x2="164" y2="502.5"/><circle class="cls-10" cx="264" cy="500" r="47.5"/><path d="M264,455a45,45,0,1,1-45,45,45.05,45.05,0,0,1,45-45m0-5a50,50,0,1,0,50,50,50,50,0,0,0-50-50Z"/><text class="cls-11" transform="translate(73.42 493.18)">Balance: 15LX</text><line class="cls-5" x1="632.87" y1="198.44" x2="532.87" y2="198.44"/><line class="cls-6" x1="632.87" y1="200.44" x2="632.87" y2="350.44"/><line class="cls-6" x1="632.87" y1="352.44" x2="632.87" y2="502.44"/><line class="cls-5" x1="632.87" y1="352.94" x2="532.87" y2="352.94"/><circle class="cls-12" cx="632.87" cy="198.44" r="47.5"/><path d="M632.87,153.44a45,45,0,1,1-45,45,45,45,0,0,1,45-45m0-5a50,50,0,1,0,50,50,50,50,0,0,0-50-50Z"/><text class="cls-11" transform="translate(449.89 186.53)">Balance: 20LX</text><circle class="cls-12" cx="632.87" cy="350.44" r="47.5"/><path d="M632.87,305.44a45,45,0,1,1-45,45,45,45,0,0,1,45-45m0-5a50,50,0,1,0,50,50,50,50,0,0,0-50-50Z"/><text class="cls-11" transform="translate(437.99 341.53)">Balance: 0LX</text><line class="cls-5" x1="632.87" y1="504.94" x2="532.87" y2="504.94"/><circle class="cls-12" cx="632.87" cy="502.44" r="47.5"/><path d="M632.87,457.44a45,45,0,1,1-45,45,45,45,0,0,1,45-45m0-5a50,50,0,1,0,50,50,50,50,0,0,0-50-50Z"/><text class="cls-11" transform="translate(442.29 495.62)">Balance: 8LX</text><line class="cls-5" x1="1046.97" y1="198.81" x2="946.97" y2="198.81"/><line class="cls-6" x1="1046.97" y1="200.81" x2="1046.97" y2="350.81"/><line class="cls-6" x1="1046.97" y1="352.81" x2="1046.97" y2="502.81"/><line class="cls-5" x1="1046.97" y1="353.31" x2="946.97" y2="353.31"/><circle class="cls-13" cx="1046.96" cy="198.81" r="47.5"/><path d="M1047,153.81a45,45,0,1,1-45,45,45.05,45.05,0,0,1,45-45m0-5a50,50,0,1,0,50,50,50,50,0,0,0-50-50Z"/><text class="cls-11" transform="translate(863.98 186.9)">Balance: 4LX</text><circle class="cls-13" cx="1046.96" cy="350.81" r="47.5"/><path d="M1047,305.81a45,45,0,1,1-45,45,45.05,45.05,0,0,1,45-45m0-5a50,50,0,1,0,50,50,50,50,0,0,0-50-50Z"/><text class="cls-11" transform="translate(852.08 341.9)">Balance: 10LX</text><line class="cls-5" x1="1046.97" y1="505.31" x2="946.97" y2="505.31"/><circle class="cls-13" cx="1046.96" cy="502.81" r="47.5"/><path d="M1047,457.81a45,45,0,1,1-45,45,45.05,45.05,0,0,1,45-45m0-5a50,50,0,1,0,50,50,50,50,0,0,0-50-50Z"/><text class="cls-11" transform="translate(856.38 495.99)">Balance: 2LX</text><text class="cls-14" transform="matrix(0.94, -0.35, 0.35, 0.94, 710.7, 465.71)">0xa420b sent 8LX to 0<tspan class="cls-15" x="184.41" y="0">x</tspan><tspan x="192.72" y="0">dcm69</tspan></text><text class="cls-14" transform="translate(317.79 318.32) rotate(-22.25)">0<tspan class="cls-15" x="11.11" y="0">x</tspan><tspan class="cls-16" x="19.42" y="0">dcm69 sent 20LX to 0xa5d3c</tspan></text></svg>