<svg id="visual" viewBox="0 0 960 540" width="960" height="540" xmlns="http://www.w3.org/2000/svg" xmlns:xlink="http://www.w3.org/1999/xlink" version="1.1"><rect x="0" y="0" width="960" height="540" fill="#377BFA"></rect><defs><linearGradient id="grad1_0" x1="43.8%" y1="0%" x2="100%" y2="100%"><stop offset="14.444444444444446%" stop-color="#ff937f" stop-opacity="1"></stop><stop offset="85.55555555555554%" stop-color="#ff937f" stop-opacity="1"></stop></linearGradient></defs><defs><linearGradient id="grad1_1" x1="43.8%" y1="0%" x2="100%" y2="100%"><stop offset="14.444444444444446%" stop-color="#ff937f" stop-opacity="1"></stop><stop offset="85.55555555555554%" stop-color="#e96bba" stop-opacity="1"></stop></linearGradient></defs><defs><linearGradient id="grad1_2" x1="43.8%" y1="0%" x2="100%" y2="100%"><stop offset="14.444444444444446%" stop-color="#377bfa" stop-opacity="1"></stop><stop offset="85.55555555555554%" stop-color="#e96bba" stop-opacity="1"></stop></linearGradient></defs><defs><linearGradient id="grad2_0" x1="0%" y1="0%" x2="56.3%" y2="100%"><stop offset="14.444444444444446%" stop-color="#ff937f" stop-opacity="1"></stop><stop offset="85.55555555555554%" stop-color="#ff937f" stop-opacity="1"></stop></linearGradient></defs><defs><linearGradient id="grad2_1" x1="0%" y1="0%" x2="56.3%" y2="100%"><stop offset="14.444444444444446%" stop-color="#e96bba" stop-opacity="1"></stop><stop offset="85.55555555555554%" stop-color="#ff937f" stop-opacity="1"></stop></linearGradient></defs><defs><linearGradient id="grad2_2" x1="0%" y1="0%" x2="56.3%" y2="100%"><stop offset="14.444444444444446%" stop-color="#e96bba" stop-opacity="1"></stop><stop offset="85.55555555555554%" stop-color="#377bfa" stop-opacity="1"></stop></linearGradient></defs><g transform="translate(960, 0)"><path d="M0 324C-29.9 325.6 -59.8 327.2 -83.9 313C-107.9 298.7 -126 268.7 -142 246C-158 223.2 -172 207.9 -195.9 195.9C-219.8 183.9 -253.6 175.2 -269.3 155.5C-285.1 135.8 -282.7 105.1 -288.8 77.4C-294.9 49.6 -309.5 24.8 -324 0L0 0Z" fill="#b46fe0"></path><path d="M0 216C-19.9 217.1 -39.9 218.1 -55.9 208.6C-71.9 199.2 -84 179.1 -94.7 164C-105.4 148.8 -114.7 138.6 -130.6 130.6C-146.5 122.6 -169.1 116.8 -179.6 103.7C-190 90.5 -188.5 70.1 -192.5 51.6C-196.6 33.1 -206.3 16.5 -216 0L0 0Z" fill="#ff7997"></path><path d="M0 108C-10 108.5 -19.9 109.1 -28 104.3C-36 99.6 -42 89.6 -47.3 82C-52.7 74.4 -57.3 69.3 -65.3 65.3C-73.3 61.3 -84.5 58.4 -89.8 51.8C-95 45.3 -94.2 35 -96.3 25.8C-98.3 16.5 -103.2 8.3 -108 0L0 0Z" fill="#ff937f"></path></g><g transform="translate(0, 540)"><path d="M0 -324C27.3 -318.5 54.7 -313.1 82.3 -307.2C109.9 -301.2 137.8 -294.8 162 -280.6C186.2 -266.3 206.8 -244.2 218.5 -218.5C230.2 -192.8 233.1 -163.4 241.6 -139.5C250.2 -115.6 264.5 -97.1 279.2 -74.8C293.8 -52.5 308.9 -26.2 324 0L0 0Z" fill="#b46fe0"></path><path d="M0 -216C18.2 -212.4 36.5 -208.7 54.9 -204.8C73.3 -200.8 91.9 -196.6 108 -187.1C124.1 -177.6 137.9 -162.8 145.7 -145.7C153.5 -128.5 155.4 -108.9 161.1 -93C166.8 -77.1 176.3 -64.8 186.1 -49.9C195.9 -35 205.9 -17.5 216 0L0 0Z" fill="#ff7997"></path><path d="M0 -108C9.1 -106.2 18.2 -104.4 27.4 -102.4C36.6 -100.4 45.9 -98.3 54 -93.5C62.1 -88.8 68.9 -81.4 72.8 -72.8C76.7 -64.3 77.7 -54.5 80.5 -46.5C83.4 -38.5 88.2 -32.4 93.1 -24.9C97.9 -17.5 103 -8.7 108 0L0 0Z" fill="#ff937f"></path></g></svg>