<?xml version="1.0" standalone="no"?>
<!DOCTYPE svg PUBLIC "-//W3C//DTD SVG 20010904//EN"
 "http://www.w3.org/TR/2001/REC-SVG-20010904/DTD/svg10.dtd">
<svg version="1.0" xmlns="http://www.w3.org/2000/svg"
 width="1152.000000pt" height="1152.000000pt" viewBox="0 0 1152.000000 1152.000000"
 preserveAspectRatio="xMidYMid meet">
<metadata>
Created by potrace 1.14, written by Peter Selinger 2001-2017
</metadata>
<g transform="translate(0.000000,1152.000000) scale(0.100000,-0.100000)"
fill="#000000" stroke="none">
<path d="M6587 11480 c-26 -16 -49 -30 -51 -30 -6 0 -290 -168 -303 -180 -7
-5 -17 -10 -23 -10 -5 0 -10 -4 -10 -10 0 -6 -3 -9 -7 -8 -7 2 -152 -79 -163
-92 -3 -3 -84 -52 -180 -110 -96 -58 -182 -109 -191 -115 -9 -5 -48 -28 -85
-49 -38 -22 -71 -43 -74 -46 -3 -4 -12 -9 -20 -13 -8 -4 -33 -18 -55 -31 -22
-14 -67 -41 -100 -61 -33 -19 -77 -45 -97 -58 -209 -126 -191 -114 -245 -169
-60 -63 -116 -159 -127 -220 -3 -13 -5 -23 -6 -23 -10 0 -12 -482 -13 -3094
l-1 -3025 109 -67 c61 -38 115 -73 122 -79 7 -5 14 -10 17 -10 9 0 251 -155
254 -162 2 -5 10 -8 18 -8 7 0 23 -8 34 -17 11 -9 40 -28 64 -42 90 -52 212
-124 264 -157 28 -19 52 -32 52 -29 0 3 9 -3 20 -13 11 -10 36 -27 57 -38 21
-12 120 -71 221 -132 101 -62 187 -112 193 -112 5 0 9 -4 9 -8 0 -4 22 -19 50
-33 27 -13 50 -27 50 -30 0 -4 14 -12 30 -19 17 -7 30 -16 30 -19 0 -4 16 -13
35 -21 19 -8 35 -17 35 -22 0 -4 4 -8 9 -8 5 0 47 -23 93 -51 46 -29 97 -59
113 -69 17 -9 82 -48 145 -87 63 -38 149 -89 190 -113 41 -25 78 -48 81 -53 3
-5 9 -8 13 -8 3 1 17 -6 31 -14 14 -8 36 -22 50 -30 14 -8 27 -14 29 -13 2 2
15 -6 28 -18 13 -12 38 -27 56 -35 17 -8 32 -17 32 -21 0 -5 7 -8 15 -8 8 0
15 -3 15 -7 0 -5 23 -19 50 -32 28 -14 50 -29 50 -33 0 -4 4 -8 9 -8 5 0 79
-42 165 -94 86 -52 156 -92 156 -88 0 4 4 2 8 -4 7 -11 189 -124 199 -124 4 0
14 -6 22 -14 9 -8 32 -23 51 -33 19 -11 61 -35 94 -53 81 -46 164 -66 261 -64
138 3 189 22 380 141 11 7 35 20 53 29 17 9 32 19 32 23 0 4 16 13 35 21 19 8
35 17 35 22 0 4 6 8 13 8 6 0 43 20 80 45 38 25 75 45 83 45 8 0 14 4 14 8 0
5 18 17 40 27 22 10 40 22 40 26 0 4 10 11 22 15 26 8 100 54 110 69 4 5 8 6
8 1 0 -5 7 -3 15 4 8 7 28 20 44 29 121 69 217 126 221 131 3 4 12 10 20 14 8
4 33 18 55 31 22 13 52 31 66 39 14 8 123 73 244 145 120 72 222 131 226 131
24 0 1 20 -77 65 -47 28 -102 60 -122 73 -20 13 -45 25 -54 29 -10 3 -18 9
-18 14 0 5 -5 9 -10 9 -6 0 -47 22 -91 50 -44 27 -82 50 -85 50 -2 0 -28 16
-58 35 -30 19 -60 35 -66 35 -5 0 -10 5 -10 10 0 6 -6 10 -13 10 -8 0 -24 9
-37 20 -13 11 -34 23 -47 26 -13 4 -23 10 -23 15 0 5 -7 9 -15 9 -8 0 -15 5
-15 10 0 6 -7 10 -15 10 -8 0 -15 3 -15 8 0 4 -13 13 -29 20 -16 7 -89 49
-163 93 -147 89 -348 208 -418 247 -25 14 -56 33 -70 42 -14 9 -45 28 -70 42
-100 56 -245 141 -250 147 -3 3 -21 14 -40 25 -44 23 -64 35 -235 136 -77 45
-154 90 -171 100 -17 10 -62 37 -99 59 -37 23 -69 41 -72 41 -2 0 -24 14 -49
30 -24 17 -44 27 -44 23 0 -4 -4 -3 -8 3 -4 6 -19 17 -34 25 -15 8 -87 50
-160 93 -73 43 -146 86 -163 95 -16 9 -32 18 -35 21 -3 3 -21 14 -40 24 -19
11 -53 31 -75 45 -22 14 -43 25 -47 26 -4 0 -15 7 -25 15 -10 8 -35 24 -55 35
-37 20 -326 189 -397 232 -20 12 -49 29 -66 38 -16 9 -37 21 -46 28 -14 11
-15 304 -15 3160 1 2200 -2 3147 -10 3147 -5 0 -31 -13 -57 -30z"/>
<path d="M2995 9471 c-6 -5 -116 -73 -245 -150 -129 -78 -242 -145 -250 -151
-8 -5 -42 -25 -75 -45 -33 -19 -67 -40 -75 -45 -56 -37 -233 -140 -241 -140
-5 0 -9 -4 -9 -9 0 -5 -9 -13 -21 -16 -11 -4 -46 -24 -77 -44 -31 -21 -61 -40
-67 -42 -10 -4 -97 -56 -163 -97 -21 -12 -44 -25 -52 -29 -8 -4 -19 -11 -25
-15 -5 -5 -57 -37 -115 -71 -207 -123 -268 -179 -323 -298 -50 -108 -47 64
-47 -3069 0 -2897 1 -3011 31 -3044 5 -6 9 -17 9 -26 0 -45 153 -230 190 -230
6 0 10 -4 10 -10 0 -5 5 -10 10 -10 6 0 47 -22 91 -50 44 -27 85 -50 90 -50 5
0 9 -4 9 -10 0 -5 4 -10 10 -10 9 0 117 -63 217 -127 28 -18 54 -33 56 -33 3
0 42 -23 86 -50 44 -28 84 -50 89 -50 4 0 17 -8 28 -17 10 -10 39 -29 64 -42
25 -14 56 -32 70 -42 30 -20 152 -92 285 -168 33 -19 62 -37 65 -40 9 -10 64
-42 83 -48 9 -3 17 -9 17 -14 0 -5 4 -9 10 -9 5 0 62 -32 127 -71 65 -40 134
-81 153 -92 94 -53 205 -122 208 -129 2 -4 8 -8 13 -8 4 0 43 -20 85 -45 41
-25 80 -45 85 -45 5 0 9 -4 9 -10 0 -5 19 -18 43 -30 47 -23 99 -52 107 -60
11 -11 182 -110 191 -110 5 0 9 -4 9 -10 0 -5 7 -10 15 -10 8 0 15 -4 15 -10
0 -5 4 -10 9 -10 6 0 85 -45 178 -101 161 -97 202 -121 254 -151 13 -7 26 -16
29 -19 3 -3 12 -8 20 -12 8 -4 33 -18 55 -32 22 -14 47 -28 55 -32 8 -4 40
-23 70 -42 30 -19 57 -34 59 -32 2 1 7 -1 10 -6 3 -4 17 -14 30 -21 13 -8 39
-22 57 -33 19 -10 36 -19 39 -19 3 0 6 0 8 -1 3 -1 29 -7 69 -17 21 -6 77 -9
125 -7 100 3 185 30 278 89 30 20 57 36 60 36 2 0 24 14 48 30 25 17 47 30 50
30 3 0 59 33 124 73 65 40 125 76 133 80 8 4 27 15 42 25 72 45 152 92 159 92
5 0 9 4 9 8 0 4 12 13 28 20 40 17 97 53 100 63 2 5 8 9 14 9 6 0 45 21 87 46
42 26 90 55 106 64 60 35 271 162 295 178 14 9 27 17 30 17 3 0 29 15 58 34
44 28 52 38 53 65 0 17 1 57 2 88 l2 57 -57 33 c-32 18 -58 36 -58 41 0 4 -6
7 -14 7 -7 0 -25 9 -38 20 -14 10 -28 17 -30 14 -3 -2 -11 2 -18 11 -7 8 -16
15 -20 15 -7 0 -141 78 -190 110 -8 6 -24 15 -35 20 -11 6 -38 22 -60 36 -22
13 -48 27 -57 31 -10 3 -18 9 -18 14 0 5 -4 9 -10 9 -5 0 -97 52 -204 115
-107 63 -199 115 -205 115 -6 0 -11 4 -11 8 0 5 -12 15 -27 23 -16 7 -50 27
-78 44 -27 16 -62 37 -78 45 -72 40 -214 125 -230 138 -9 8 -17 11 -17 6 0 -5
-4 -4 -8 1 -4 6 -20 17 -36 25 -56 29 -66 35 -66 42 0 5 -4 8 -9 8 -5 0 -52
26 -106 57 -53 32 -115 68 -138 81 -23 12 -44 27 -48 33 -3 6 -10 10 -15 10
-9 -1 -294 164 -346 200 -15 11 -30 19 -33 19 -3 0 -24 12 -48 27 -23 14 -44
26 -47 26 -3 0 -35 20 -73 44 -37 24 -69 43 -71 43 -2 0 -56 31 -118 69 -63
38 -130 77 -149 86 -19 10 -36 21 -39 24 -3 3 -25 17 -50 30 -25 13 -52 30
-61 37 -8 8 -18 14 -22 14 -3 0 -63 34 -134 76 -70 42 -148 88 -173 102 -24
14 -84 49 -133 79 -48 29 -91 53 -96 53 -4 0 -15 8 -23 18 -14 15 -16 343 -16
3147 0 1722 -1 3138 -1 3148 -1 19 -12 22 -26 8z"/>
</g>
</svg>
