<svg xmlns="http://www.w3.org/2000/svg" viewBox="0 0 163.81 72.1"><defs><style>.cls-1{fill:#4e75ba;}</style></defs><g id="Layer_2" data-name="Layer 2"><g id="Layer_1-2" data-name="Layer 1"><path class="cls-1" d="M69.84,53.16V22.24h5.83V47.86H89.8v5.3Z"/><path class="cls-1" d="M94.48,53.16V42.51L84,22.24h6.49L97,35.49h.8l6.53-13.25h6.5L100.31,42.51V53.16Z"/><path class="cls-1" d="M111.87,53.16V22.24H123l6.14,26.94h.79V22.24h5.74V53.16H124.55l-6.14-26.94h-.79V53.16Z"/><path class="cls-1" d="M137.31,53.16l9.05-15.59-9-15.33H144l6.14,11.18H151l6.14-11.18h6.63l-9,15.33,9.06,15.59h-6.63L151,41.72h-.79l-6.23,11.44Z"/><path class="cls-1" d="M33.33,65.15v1.11l-5.46,3.27-3.51,2.11a3.22,3.22,0,0,1-3.31,0L1.57,60A3.23,3.23,0,0,1,0,57.23V21.38a3.21,3.21,0,0,1,1.56-2.76l9.79-5.88V52.23l10.87,6.39Z"/><polygon class="cls-1" points="33.82 52.96 33.82 53.14 27.64 49.29 27.66 49.27 33.82 52.96"/><path class="cls-1" d="M57,53l-9.9,5.94a3.2,3.2,0,0,1-2.17.42.07.07,0,0,1-.06,0,3.12,3.12,0,0,1-1.09-.4l-5-3L33.82,53l-6.16-3.69-1.11-.66-.17-.1-2.55-1.59h0l-1.11-.69V8.64a3.24,3.24,0,0,1,1.56-2.77l4.32-2.59,2.52-1.51,3-1.77V39.48l5,2.94,5.7,3.35,5.36,3.15h0l5.94,3.5Z"/><path class="cls-1" d="M26.38,48.51l-2.1-1.26a3.72,3.72,0,0,1-.45-.33Z"/></g></g></svg>