<svg width="311" height="71" viewBox="0 0 311 71" fill="none" xmlns="http://www.w3.org/2000/svg">
<path d="M21.05 0.455886L1.57002 12.1059C1.09 12.3912 0.692709 12.7967 0.417372 13.2825C0.142035 13.7683 -0.00181809 14.3175 1.73461e-05 14.8759V50.7159C8.86965e-05 51.2727 0.143677 51.8201 0.416929 52.3053C0.690181 52.7905 1.08387 53.1971 1.56002 53.4859L11.35 59.3559V19.8759L34.27 6.40587L24.37 0.465865C23.8697 0.162811 23.2963 0.00177643 22.7114 1.46113e-05C22.1265 -0.0017472 21.5521 0.155851 21.05 0.455886V0.455886Z" fill="black"/>
<path d="M22.71 25.8858V39.7158L33.82 32.7958V18.9658L22.71 25.8858Z" fill="black"/>
<path d="M44.85 12.7559L44.71 37.5359C44.7082 38.0844 44.5645 38.6232 44.2929 39.0998C44.0213 39.5764 43.631 39.9747 43.16 40.2559L24.26 51.6158C23.786 51.8988 23.3939 52.3002 23.1221 52.7806C22.8504 53.261 22.7083 53.8039 22.71 54.3559V66.1158L29 69.9059C29.4853 70.1979 30.0396 70.356 30.606 70.3637C31.1724 70.3715 31.7308 70.2288 32.224 69.9502C32.7172 69.6715 33.1276 69.267 33.4133 68.7778C33.699 68.2886 33.8497 67.7323 33.85 67.1659V60.9958C33.8441 60.4488 33.979 59.9095 34.2417 59.4297C34.5043 58.9499 34.886 58.5456 35.35 58.2559L55.19 46.1059C55.6581 45.8206 56.0448 45.4196 56.3128 44.9414C56.5807 44.4632 56.721 43.924 56.72 43.3759V21.5858C56.7183 21.0309 56.5728 20.4858 56.2977 20.0038C56.0225 19.5218 55.6271 19.1194 55.15 18.8358L44.85 12.7559Z" fill="black"/>
<path d="M72.72 55.3737V24.6337H78.19V27.2837H78.99C79.5747 26.3488 80.3777 25.5698 81.33 25.0138C82.7263 24.2696 84.3003 23.9237 85.88 24.0138C87.6353 23.9926 89.3619 24.4603 90.8666 25.3646C92.3713 26.2688 93.5947 27.5738 94.4 29.1337C95.359 31.0171 95.83 33.1111 95.77 35.2237V35.9337C95.83 38.0464 95.359 40.1403 94.4 42.0237C93.5947 43.5836 92.3713 44.8887 90.8666 45.793C89.3619 46.6972 87.6353 47.1649 85.88 47.1438C84.749 47.174 83.6207 47.0186 82.54 46.6837C81.7487 46.433 81.0147 46.0286 80.38 45.4937C79.8838 45.0594 79.4467 44.5618 79.08 44.0138H78.28V55.3638L72.72 55.3737ZM84.2 42.3038C84.9924 42.3255 85.7813 42.19 86.5211 41.9051C87.2609 41.6202 87.9368 41.1915 88.51 40.6438C89.1085 39.9977 89.5682 39.2357 89.8606 38.405C90.153 37.5742 90.2719 36.6923 90.21 35.8137V35.3638C90.2716 34.4828 90.1497 33.5986 89.8519 32.7672C89.5541 31.9358 89.0869 31.1752 88.48 30.5337C87.3101 29.4663 85.7836 28.8746 84.2 28.8746C82.6163 28.8746 81.0898 29.4663 79.92 30.5337C79.313 31.1752 78.8459 31.9358 78.5481 32.7672C78.2503 33.5986 78.1283 34.4828 78.19 35.3638V35.8137C78.1283 36.6947 78.2503 37.5789 78.5481 38.4103C78.8459 39.2417 79.313 40.0023 79.92 40.6438C80.4872 41.191 81.1579 41.6197 81.8928 41.9047C82.6277 42.1897 83.412 42.3254 84.2 42.3038V42.3038Z" fill="black"/>
<path d="M98.6801 46.5439V24.6339H104.16V27.1639H104.95C105.217 26.3162 105.796 25.6014 106.57 25.1639C107.377 24.7381 108.278 24.5247 109.19 24.5439H111.84V29.4939H109.1C107.843 29.4446 106.609 29.8453 105.62 30.6239C105.141 31.0561 104.768 31.5933 104.53 32.1935C104.292 32.7937 104.196 33.4406 104.25 34.0839V46.5439H98.6801Z" fill="black"/>
<path d="M123.57 47.1638C121.536 47.1976 119.524 46.7451 117.7 45.8438C115.987 44.9891 114.559 43.655 113.59 42.0038C112.549 40.1612 112.03 38.0694 112.09 35.9539V35.2438C112.019 33.12 112.53 31.0172 113.57 29.1638C114.539 27.5127 115.967 26.1786 117.68 25.3239C119.515 24.4546 121.52 24.0037 123.55 24.0037C125.58 24.0037 127.585 24.4546 129.42 25.3239C131.148 26.1723 132.59 27.5069 133.57 29.1638C134.611 31.0065 135.13 33.0983 135.07 35.2138V35.9239C135.13 38.0394 134.611 40.1312 133.57 41.9738C132.601 43.625 131.173 44.9591 129.46 45.8138C127.632 46.7275 125.613 47.1904 123.57 47.1638ZM123.57 42.2238C124.352 42.2492 125.132 42.1152 125.861 41.8298C126.59 41.5444 127.253 41.1137 127.81 40.5638C128.398 39.9298 128.85 39.1823 129.139 38.3672C129.428 37.5522 129.547 36.6867 129.49 35.8239V35.3738C129.546 34.5128 129.428 33.6492 129.143 32.8348C128.857 32.0204 128.411 31.2718 127.83 30.6339C126.672 29.5663 125.155 28.9737 123.58 28.9737C122.005 28.9737 120.488 29.5663 119.33 30.6339C118.742 31.2679 118.29 32.0154 118.001 32.8304C117.712 33.6455 117.592 34.511 117.65 35.3738V35.8239C117.592 36.6867 117.712 37.5522 118.001 38.3672C118.29 39.1823 118.742 39.9298 119.33 40.5638C119.888 41.1119 120.552 41.5408 121.28 41.8244C122.009 42.108 122.788 42.2405 123.57 42.2138V42.2238Z" fill="black"/>
<path d="M145.67 46.5437C145.024 46.5695 144.379 46.463 143.776 46.2309C143.172 45.9988 142.622 45.6458 142.16 45.1937C141.702 44.7167 141.347 44.1515 141.115 43.5326C140.883 42.9137 140.779 42.254 140.81 41.5937V29.2337H135.34V24.6337H140.81V17.8337H146.38V24.6337H152.38V29.2337H146.38V40.6237C146.38 41.5037 146.79 41.9437 147.61 41.9437H151.85V46.5437H145.67Z" fill="black"/>
<path d="M164.83 47.1639C162.796 47.1954 160.784 46.7429 158.96 45.8439C157.247 44.9891 155.819 43.6551 154.85 42.0039C153.809 40.1613 153.29 38.0695 153.35 35.9539V35.2439C153.29 33.1283 153.809 31.0365 154.85 29.1939C155.819 27.5427 157.247 26.2086 158.96 25.3539C160.796 24.4844 162.803 24.0334 164.835 24.0334C166.867 24.0334 168.873 24.4844 170.71 25.3539C172.418 26.2121 173.842 27.5456 174.81 29.1939C175.855 31.0355 176.377 33.1273 176.32 35.2439V35.9539C176.377 38.0704 175.855 40.1623 174.81 42.0039C173.842 43.6522 172.418 44.9856 170.71 45.8439C168.882 46.7441 166.867 47.1966 164.83 47.1639ZM164.83 42.2239C165.612 42.2493 166.392 42.1152 167.121 41.8298C167.85 41.5444 168.513 41.1137 169.07 40.5639C169.658 39.9298 170.11 39.1823 170.399 38.3673C170.688 37.5522 170.807 36.6867 170.75 35.8239V35.3739C170.808 34.5126 170.691 33.6484 170.406 32.8337C170.121 32.0189 169.673 31.2706 169.09 30.6339C167.932 29.5664 166.415 28.9737 164.84 28.9737C163.265 28.9737 161.748 29.5664 160.59 30.6339C160.005 31.2697 159.556 32.0177 159.269 32.8325C158.982 33.6473 158.863 34.5119 158.92 35.3739V35.8239C158.863 36.6859 158.982 37.5505 159.269 38.3652C159.556 39.18 160.005 39.928 160.59 40.5639C161.148 41.1114 161.812 41.54 162.541 41.8236C163.27 42.1072 164.048 42.24 164.83 42.2139V42.2239Z" fill="black"/>
<path d="M189.57 47.1637C187.572 47.192 185.596 46.7392 183.81 45.8437C182.105 44.9854 180.684 43.6517 179.72 42.0037C178.674 40.145 178.155 38.0357 178.22 35.9037V35.2937C178.155 33.1617 178.674 31.0525 179.72 29.1937C180.684 27.5458 182.105 26.2121 183.81 25.3537C185.596 24.4582 187.572 24.0055 189.57 24.0337C191.427 23.9821 193.271 24.3585 194.96 25.1337C196.401 25.8194 197.652 26.8498 198.6 28.1337C199.535 29.4247 200.161 30.9129 200.43 32.4837L195.04 33.6337C194.941 32.7949 194.673 31.985 194.25 31.2537C193.838 30.5422 193.235 29.9602 192.51 29.5737C191.64 29.1347 190.674 28.9215 189.7 28.9538C188.654 28.9385 187.622 29.1897 186.7 29.6837C185.795 30.1776 185.057 30.9295 184.58 31.8437C184.031 32.9301 183.762 34.1369 183.8 35.3537V35.8038C183.762 37.0206 184.031 38.2274 184.58 39.3137C185.057 40.228 185.795 40.9799 186.7 41.4737C187.622 41.9678 188.654 42.219 189.7 42.2038C190.391 42.252 191.085 42.1618 191.741 41.9386C192.397 41.7154 193.002 41.3635 193.52 40.9037C194.423 39.9654 195.004 38.7642 195.18 37.4737L200.56 38.7537C200.182 40.2953 199.502 41.7467 198.56 43.0237C197.614 44.3103 196.363 45.3413 194.92 46.0237C193.247 46.8068 191.417 47.1968 189.57 47.1637V47.1637Z" fill="black"/>
<path d="M213.32 47.1639C211.286 47.1977 209.274 46.7451 207.45 45.8439C205.737 44.9891 204.309 43.6551 203.34 42.0039C202.299 40.1613 201.78 38.0695 201.84 35.9539V35.2439C201.78 33.1283 202.299 31.0365 203.34 29.1939C204.309 27.5427 205.737 26.2086 207.45 25.3539C209.285 24.4846 211.29 24.0337 213.32 24.0337C215.35 24.0337 217.355 24.4846 219.19 25.3539C220.903 26.2086 222.331 27.5427 223.3 29.1939C224.341 31.0365 224.86 33.1283 224.8 35.2439V35.9539C224.86 38.0695 224.341 40.1613 223.3 42.0039C222.331 43.6551 220.903 44.9891 219.19 45.8439C217.366 46.7451 215.354 47.1977 213.32 47.1639V47.1639ZM213.32 42.2239C214.102 42.2493 214.882 42.1152 215.611 41.8298C216.34 41.5444 217.003 41.1137 217.56 40.5639C218.148 39.9298 218.6 39.1823 218.889 38.3673C219.178 37.5522 219.297 36.6867 219.24 35.8239V35.3739C219.298 34.5126 219.181 33.6484 218.896 32.8337C218.611 32.0189 218.163 31.2706 217.58 30.6339C216.422 29.5664 214.905 28.9737 213.33 28.9737C211.755 28.9737 210.238 29.5664 209.08 30.6339C208.492 31.2679 208.04 32.0154 207.751 32.8305C207.462 33.6455 207.342 34.511 207.4 35.3739V35.8239C207.342 36.6867 207.462 37.5522 207.751 38.3673C208.04 39.1823 208.492 39.9298 209.08 40.5639C209.638 41.1119 210.302 41.5408 211.03 41.8244C211.759 42.1081 212.538 42.2406 213.32 42.2139V42.2239Z" fill="black"/>
<path d="M236.57 47.1638C234.815 47.1766 233.09 46.7055 231.586 45.8022C230.081 44.899 228.854 43.5986 228.04 42.0438C227.084 40.1595 226.617 38.0656 226.68 35.9538V35.2438C226.617 33.132 227.084 31.0381 228.04 29.1538C228.849 27.5946 230.074 26.2904 231.58 25.3864C233.086 24.4825 234.814 24.0142 236.57 24.0338C237.698 24.0043 238.823 24.1596 239.9 24.4938C240.695 24.7471 241.437 25.1436 242.09 25.6638C242.603 26.0828 243.037 26.5909 243.37 27.1638H244.16V15.6238H249.73V46.5438H244.25V43.8938H243.46C242.86 44.8041 242.068 45.5721 241.14 46.1438C239.743 46.908 238.159 47.2616 236.57 47.1638V47.1638ZM238.24 42.3138C239.029 42.3329 239.814 42.1961 240.55 41.9112C241.287 41.6264 241.959 41.1991 242.53 40.6538C243.136 40.0118 243.601 39.2509 243.897 38.4195C244.193 37.588 244.314 36.7041 244.25 35.8238V35.3738C244.312 34.4952 244.193 33.6133 243.901 32.7826C243.608 31.9518 243.149 31.1898 242.55 30.5438C241.374 29.4764 239.843 28.8851 238.255 28.8851C236.667 28.8851 235.136 29.4764 233.96 30.5438C233.354 31.1858 232.889 31.9466 232.593 32.7781C232.297 33.6096 232.176 34.4935 232.24 35.3738V35.8238C232.176 36.7041 232.297 37.588 232.593 38.4195C232.889 39.2509 233.354 40.0118 233.96 40.6538C235.107 41.744 236.638 42.3371 238.22 42.3038L238.24 42.3138Z" fill="black"/>
<path d="M256.46 22.074C255.514 22.0903 254.601 21.7307 253.92 21.074C253.253 20.3888 252.88 19.4703 252.88 18.514C252.88 17.5578 253.253 16.6393 253.92 15.954C254.623 15.3299 255.53 14.9851 256.47 14.9851C257.41 14.9851 258.317 15.3299 259.02 15.954C259.676 16.6452 260.041 17.5615 260.041 18.514C260.041 19.4666 259.676 20.3829 259.02 21.074C258.682 21.4034 258.281 21.6616 257.841 21.8334C257.402 22.0052 256.932 22.087 256.46 22.074V22.074ZM253.68 46.544V24.634H259.24V46.544H253.68Z" fill="black"/>
<path d="M263.22 46.5437V24.6337H268.69V27.5036H269.49C269.954 26.6139 270.643 25.862 271.49 25.3237C272.825 24.5524 274.363 24.2037 275.9 24.3237C277.473 24.2879 279.025 24.6931 280.38 25.4936C281.661 26.2654 282.701 27.3809 283.38 28.7136C284.116 30.2045 284.48 31.8515 284.44 33.5137V46.5837H278.88V33.9137C278.933 33.246 278.853 32.5745 278.645 31.9378C278.438 31.3011 278.106 30.7118 277.67 30.2037C277.207 29.7705 276.661 29.4369 276.064 29.2236C275.467 29.0103 274.832 28.9218 274.2 28.9636C273.447 28.921 272.695 29.0522 272.002 29.347C271.308 29.6418 270.692 30.0923 270.2 30.6637C269.185 32.0315 268.686 33.7137 268.79 35.4137V46.5437H263.22Z" fill="black"/>
<path d="M287.15 35.6738V34.9738C287.092 32.9221 287.564 30.89 288.52 29.0738C289.366 27.5131 290.625 26.2156 292.16 25.3238C293.681 24.4529 295.407 24.0041 297.16 24.0238C298.748 23.9165 300.332 24.2856 301.71 25.0838C302.605 25.6528 303.371 26.4021 303.96 27.2838H304.76V24.6338H310.23V50.4238C310.261 51.0816 310.161 51.7391 309.934 52.3574C309.707 52.9757 309.359 53.5423 308.91 54.0238C308.446 54.4794 307.893 54.8344 307.286 55.0667C306.678 55.299 306.029 55.4035 305.38 55.3738H290.69V50.5138H303.4C304.23 50.5138 304.64 50.0738 304.64 49.1938V43.4938H303.84C303.499 44.0256 303.085 44.507 302.61 44.9238C301.991 45.4666 301.27 45.8812 300.49 46.1438C299.405 46.4941 298.269 46.6564 297.13 46.6238C295.377 46.6435 293.651 46.1947 292.13 45.3238C290.595 44.432 289.336 43.1345 288.49 41.5738C287.547 39.7539 287.085 37.7227 287.15 35.6738V35.6738ZM298.72 41.7738C300.307 41.8151 301.846 41.2253 303 40.1338C303.595 39.5338 304.057 38.8147 304.355 38.0237C304.654 37.2327 304.781 36.3876 304.73 35.5438V35.1038C304.749 33.904 304.415 32.7249 303.771 31.7125C303.127 30.7 302.2 29.8985 301.106 29.4069C300.011 28.9154 298.796 28.7555 297.611 28.9469C296.427 29.1383 295.324 29.6726 294.44 30.4838C293.842 31.0882 293.38 31.8125 293.084 32.609C292.787 33.4055 292.663 34.2558 292.72 35.1038V35.5438C292.656 36.3587 292.765 37.178 293.04 37.9475C293.316 38.7171 293.752 39.4194 294.319 40.0082C294.886 40.597 295.571 41.0588 296.33 41.3631C297.089 41.6675 297.903 41.8074 298.72 41.7738V41.7738Z" fill="black"/>
</svg>
