<svg xmlns="http://www.w3.org/2000/svg" viewBox="0 0 343.64 70.37"><g id="Layer_2" data-name="Layer 2"><g id="Layer_1-2" data-name="Layer 1"><polygon points="56.13 56.38 0 56.38 0 0 9.38 0 9.38 47.01 46.76 47.01 56.13 56.38"/><rect x="14.34" width="9.37" height="42.56"/><polygon points="56.5 60.99 56.5 70.37 23.32 70.37 13.95 60.99 56.5 60.99"/><path d="M79.75,45.63V14.72h5.83V40.33H99.71v5.3Z"/><path d="M104,54.46V49.6H116c.83,0,1.24-.44,1.24-1.32V42.76h-.8a5.32,5.32,0,0,1-1.1,1.5,5.8,5.8,0,0,1-2,1.24A9.45,9.45,0,0,1,110,46a8.43,8.43,0,0,1-4.48-1.17,7.91,7.91,0,0,1-3-3.24,10.34,10.34,0,0,1-1.06-4.77V23.73H107V36.36a5.1,5.1,0,0,0,1.22,3.71,4.64,4.64,0,0,0,3.46,1.23,4.87,4.87,0,0,0,4-1.7,7.21,7.21,0,0,0,1.41-4.74V23.73h5.56V49.52a4.89,4.89,0,0,1-1.32,3.59,4.72,4.72,0,0,1-3.53,1.35Z"/><path d="M126.65,45.63V23.73h5.47V26.6h.8a5.66,5.66,0,0,1,2-2.19,7.63,7.63,0,0,1,4.41-1,8.43,8.43,0,0,1,4.48,1.17,8,8,0,0,1,3,3.23,10.25,10.25,0,0,1,1.06,4.79V45.63h-5.56V33a5.1,5.1,0,0,0-1.21-3.71,4.67,4.67,0,0,0-3.47-1.23,4.87,4.87,0,0,0-4,1.69,7.2,7.2,0,0,0-1.42,4.75V45.63Z"/><path d="M149.7,45.63l8-11-7.86-10.86h6.44l5,7.28h.8l5-7.28h6.45L165.6,34.59l8,11H167l-5-7.37h-.8l-5,7.37Z"/><path d="M184.41,45.63V14.72h12.71a10.92,10.92,0,0,1,5.15,1.17,8.65,8.65,0,0,1,3.49,3.29,9.66,9.66,0,0,1,1.26,5v.62a9.43,9.43,0,0,1-1.31,5,8.79,8.79,0,0,1-3.53,3.31,10.61,10.61,0,0,1-5.06,1.17h-6.88V45.63ZM190.24,29h6.31a4.89,4.89,0,0,0,3.36-1.15,4,4,0,0,0,1.28-3.14V24.3a4,4,0,0,0-1.28-3.13A4.84,4.84,0,0,0,196.55,20h-6.31Z"/><path d="M209.05,45.63V23.73h5.47V26.2h.8a3.47,3.47,0,0,1,1.61-1.94,5.41,5.41,0,0,1,2.63-.62h2.65v4.94h-2.74A5.32,5.32,0,0,0,216,29.71a4.24,4.24,0,0,0-1.37,3.47V45.63Z"/><path d="M234,46.25a12.68,12.68,0,0,1-5.87-1.33A9.88,9.88,0,0,1,224,41.08a11.6,11.6,0,0,1-1.5-6v-.71a11.57,11.57,0,0,1,1.5-6,10,10,0,0,1,4.11-3.85,13.73,13.73,0,0,1,11.75,0,10,10,0,0,1,4.1,3.85,11.57,11.57,0,0,1,1.5,6V35a11.6,11.6,0,0,1-1.5,6,9.92,9.92,0,0,1-4.1,3.84A12.72,12.72,0,0,1,234,46.25Zm0-5a5.8,5.8,0,0,0,4.24-1.65,6.39,6.39,0,0,0,1.68-4.75v-.44a6.42,6.42,0,0,0-1.66-4.75,6.3,6.3,0,0,0-8.5,0A6.38,6.38,0,0,0,228,34.46v.44a6.38,6.38,0,0,0,1.67,4.75A5.81,5.81,0,0,0,234,41.3Z"/><path d="M256,45.63a4.75,4.75,0,0,1-3.51-1.35,4.83,4.83,0,0,1-1.34-3.6V28.32H245.7V23.73h5.48v-6.8h5.56v6.8h6v4.59h-6V39.71c0,.89.41,1.33,1.24,1.33h4.24v4.59Z"/><path d="M275.2,46.25a12.65,12.65,0,0,1-5.87-1.33,9.88,9.88,0,0,1-4.11-3.84,11.6,11.6,0,0,1-1.5-6v-.71a11.57,11.57,0,0,1,1.5-6,10,10,0,0,1,4.11-3.85,13.71,13.71,0,0,1,11.74,0,10,10,0,0,1,4.11,3.85,11.57,11.57,0,0,1,1.5,6V35a11.6,11.6,0,0,1-1.5,6,9.88,9.88,0,0,1-4.11,3.84A12.68,12.68,0,0,1,275.2,46.25Zm0-5a5.8,5.8,0,0,0,4.24-1.65,6.39,6.39,0,0,0,1.68-4.75v-.44a6.46,6.46,0,0,0-1.66-4.75,6.3,6.3,0,0,0-8.5,0,6.39,6.39,0,0,0-1.68,4.75v.44A6.39,6.39,0,0,0,271,39.65,5.8,5.8,0,0,0,275.2,41.3Z"/><path d="M299.88,46.25a12.34,12.34,0,0,1-5.76-1.33A10,10,0,0,1,290,41.08a11.7,11.7,0,0,1-1.5-6.09v-.62a11.65,11.65,0,0,1,1.5-6.09,10.1,10.1,0,0,1,4.09-3.85,12.46,12.46,0,0,1,5.76-1.32,12.22,12.22,0,0,1,5.39,1.1,9.66,9.66,0,0,1,3.64,3,10.57,10.57,0,0,1,1.84,4.35l-5.39,1.14a6.45,6.45,0,0,0-.8-2.38,4.54,4.54,0,0,0-1.74-1.68,5.81,5.81,0,0,0-2.81-.61,6.32,6.32,0,0,0-3,.72A5.16,5.16,0,0,0,294.87,31a7.23,7.23,0,0,0-.77,3.51v.44a7.28,7.28,0,0,0,.77,3.51A5.08,5.08,0,0,0,297,40.57a6.22,6.22,0,0,0,3,.73,5.15,5.15,0,0,0,3.82-1.3,6.14,6.14,0,0,0,1.66-3.42l5.39,1.28a12.2,12.2,0,0,1-2,4.26,9.54,9.54,0,0,1-3.64,3A12.08,12.08,0,0,1,299.88,46.25Z"/><path d="M323.68,46.25a12.71,12.71,0,0,1-5.87-1.33,9.88,9.88,0,0,1-4.11-3.84,11.6,11.6,0,0,1-1.5-6v-.71a11.57,11.57,0,0,1,1.5-6,10,10,0,0,1,4.11-3.85,13.73,13.73,0,0,1,11.75,0,10,10,0,0,1,4.1,3.85,11.57,11.57,0,0,1,1.51,6V35a11.61,11.61,0,0,1-1.51,6,9.92,9.92,0,0,1-4.1,3.84A12.72,12.72,0,0,1,323.68,46.25Zm0-5a5.8,5.8,0,0,0,4.24-1.65,6.39,6.39,0,0,0,1.68-4.75v-.44a6.42,6.42,0,0,0-1.66-4.75,6.3,6.3,0,0,0-8.5,0,6.42,6.42,0,0,0-1.67,4.75v.44a6.42,6.42,0,0,0,1.67,4.75A5.81,5.81,0,0,0,323.68,41.3Z"/><path d="M338.08,45.63V14.72h5.56V45.63Z"/></g></g></svg>