<svg id="visual" viewBox="0 0 600 900" width="600" height="900" xmlns="http://www.w3.org/2000/svg" xmlns:xlink="http://www.w3.org/1999/xlink" version="1.1"><rect x="0" y="0" width="600" height="900" fill="#fff"></rect><defs><linearGradient id="grad1_0" x1="0%" y1="100%" x2="100%" y2="0%"><stop offset="30%" stop-color="#377bfa" stop-opacity="1"></stop><stop offset="70%" stop-color="#377bfa" stop-opacity="1"></stop></linearGradient></defs><defs><linearGradient id="grad1_1" x1="0%" y1="100%" x2="100%" y2="0%"><stop offset="30%" stop-color="#377bfa" stop-opacity="1"></stop><stop offset="70%" stop-color="#afbafe" stop-opacity="1"></stop></linearGradient></defs><defs><linearGradient id="grad1_2" x1="0%" y1="100%" x2="100%" y2="0%"><stop offset="30%" stop-color="#ffffff" stop-opacity="1"></stop><stop offset="70%" stop-color="#afbafe" stop-opacity="1"></stop></linearGradient></defs><defs><linearGradient id="grad2_0" x1="0%" y1="100%" x2="100%" y2="0%"><stop offset="30%" stop-color="#377bfa" stop-opacity="1"></stop><stop offset="70%" stop-color="#377bfa" stop-opacity="1"></stop></linearGradient></defs><defs><linearGradient id="grad2_1" x1="0%" y1="100%" x2="100%" y2="0%"><stop offset="30%" stop-color="#afbafe" stop-opacity="1"></stop><stop offset="70%" stop-color="#377bfa" stop-opacity="1"></stop></linearGradient></defs><defs><linearGradient id="grad2_2" x1="0%" y1="100%" x2="100%" y2="0%"><stop offset="30%" stop-color="#afbafe" stop-opacity="1"></stop><stop offset="70%" stop-color="#ffffff" stop-opacity="1"></stop></linearGradient></defs><g transform="translate(600, 900)"><path d="M-351.5 0C-355.6 -55.1 -359.7 -110.1 -324.8 -134.5C-289.8 -158.9 -215.8 -152.6 -181 -181C-146.2 -209.4 -150.7 -272.5 -127.1 -306.7C-103.4 -340.9 -51.7 -346.2 0 -351.5L0 0Z" fill="#d9dcff"></path><path d="M-234.4 0C-237.1 -36.7 -239.8 -73.4 -216.5 -89.7C-193.2 -105.9 -143.9 -101.7 -120.7 -120.7C-97.5 -139.6 -100.5 -181.7 -84.7 -204.5C-68.9 -227.3 -34.5 -230.8 0 -234.4L0 0Z" fill="#809afc"></path><path d="M-117.2 0C-118.5 -18.4 -119.9 -36.7 -108.3 -44.8C-96.6 -53 -71.9 -50.9 -60.3 -60.3C-48.7 -69.8 -50.2 -90.8 -42.4 -102.2C-34.5 -113.6 -17.2 -115.4 0 -117.2L0 0Z" fill="#377bfa"></path></g><g transform="translate(0, 0)"><path d="M351.5 0C340.3 47.6 329.1 95.1 301.2 124.8C273.2 154.4 228.5 166.2 201.5 201.5C174.5 236.9 165.2 295.8 134.5 324.8C103.9 353.7 51.9 352.6 0 351.5L0 0Z" fill="#d9dcff"></path><path d="M234.4 0C226.9 31.7 219.4 63.4 200.8 83.2C182.2 102.9 152.4 110.8 134.4 134.4C116.3 157.9 110.1 197.2 89.7 216.5C69.3 235.8 34.6 235.1 0 234.4L0 0Z" fill="#809afc"></path><path d="M117.2 0C113.4 15.9 109.7 31.7 100.4 41.6C91.1 51.5 76.2 55.4 67.2 67.2C58.2 79 55.1 98.6 44.8 108.3C34.6 117.9 17.3 117.5 0 117.2L0 0Z" fill="#377bfa"></path></g></svg>