<svg id="visual" viewBox="0 0 675 900" width="675" height="900" xmlns="http://www.w3.org/2000/svg" xmlns:xlink="http://www.w3.org/1999/xlink" version="1.1"><g><g transform="translate(232 137)"><path d="M33.4 -19.4C41.8 -4.6 46.3 12.3 40 24.3C33.8 36.4 16.9 43.5 0.4 43.2C-16.1 43 -32.1 35.4 -41.2 21.8C-50.3 8.1 -52.3 -11.7 -44.3 -26.2C-36.3 -40.8 -18.1 -50.2 -2.8 -48.6C12.5 -46.9 24.9 -34.2 33.4 -19.4Z" fill="#0656EA"></path></g><g transform="translate(80 476)"><path d="M18.1 -10.3C21.7 -4.3 21.5 4 17.9 10.3C14.2 16.5 7.1 20.7 1.1 20.1C-5 19.5 -9.9 14 -12.9 8.2C-15.9 2.3 -16.9 -4 -14.4 -9.4C-11.9 -14.8 -6 -19.4 0.7 -19.7C7.3 -20.1 14.5 -16.4 18.1 -10.3Z" fill="#0656EA"></path></g><g transform="translate(524 750)"><path d="M29.6 -16.4C37.9 -2.6 44.1 13.2 38.8 22.3C33.5 31.5 16.7 34 2.5 32.5C-11.8 31.1 -23.5 25.7 -31.6 15C-39.7 4.3 -44.1 -11.9 -38.2 -24.2C-32.3 -36.6 -16.2 -45.1 -2.8 -43.5C10.6 -41.9 21.2 -30.1 29.6 -16.4Z" fill="#0656EA"></path></g><g transform="translate(593 360)"><path d="M17.7 -9.4C21.5 -3.6 22.2 4.8 18.8 11.5C15.3 18.1 7.7 22.9 -0.4 23.2C-8.5 23.4 -17.1 19.1 -20.9 12.3C-24.7 5.5 -23.7 -3.8 -19.5 -9.9C-15.2 -15.9 -7.6 -18.7 -0.3 -18.5C6.9 -18.3 13.8 -15.1 17.7 -9.4Z" fill="#0656EA"></path></g><g transform="translate(400 411)"><path d="M30.5 -17.8C36.4 -7.5 35.7 6.3 29.5 17.5C23.3 28.6 11.7 37.1 0.6 36.7C-10.4 36.3 -20.7 27.1 -25.8 16.7C-30.8 6.2 -30.5 -5.6 -25.3 -15.5C-20.1 -25.3 -10 -33.2 1.2 -33.9C12.4 -34.6 24.7 -28 30.5 -17.8Z" fill="#0656EA"></path></g><g transform="translate(243 341)"><path d="M17 -10.6C19.8 -5 18.1 2.2 14.6 8C11 13.7 5.5 17.9 -0.7 18.3C-6.9 18.7 -13.8 15.3 -17.1 9.7C-20.4 4.2 -20.1 -3.6 -16.7 -9.6C-13.2 -15.6 -6.6 -19.8 0.3 -19.9C7.1 -20.1 14.2 -16.2 17 -10.6Z" fill="#0656EA"></path></g><g transform="translate(122 642)"><path d="M28 -16.1C32.3 -8.6 29.2 3.2 23.3 12.7C17.4 22.2 8.7 29.4 -0.4 29.6C-9.4 29.8 -18.9 23.1 -24.8 13.6C-30.8 4 -33.3 -8.3 -28.5 -16C-23.8 -23.6 -11.9 -26.7 0 -26.6C11.8 -26.6 23.6 -23.5 28 -16.1Z" fill="#0656EA"></path></g><g transform="translate(455 158)"><path d="M37.7 -21.4C44 -10.8 41 5.6 33.2 18.7C25.4 31.7 12.7 41.5 -1.7 42.5C-16.1 43.4 -32.2 35.6 -39.5 22.9C-46.8 10.1 -45.3 -7.6 -37.2 -19.3C-29.2 -30.9 -14.6 -36.6 0.5 -36.9C15.7 -37.2 31.3 -32.1 37.7 -21.4Z" fill="#0656EA"></path></g><g transform="translate(481 537)"><path d="M23 -12.9C27.8 -5 28.3 5.8 23.7 14.1C19.2 22.4 9.6 28.2 0.7 27.8C-8.2 27.3 -16.4 20.8 -20.5 12.7C-24.7 4.7 -24.8 -4.8 -20.7 -12.3C-16.6 -19.8 -8.3 -25.2 0.4 -25.5C9.1 -25.7 18.2 -20.7 23 -12.9Z" fill="#0656EA"></path></g><g transform="translate(362 792)"><path d="M25.1 -14C30.4 -5.2 31.2 6.6 26.2 14.3C21.3 22 10.6 25.6 1.8 24.5C-7 23.5 -14 17.8 -18.7 10.2C-23.4 2.7 -25.7 -6.8 -22.2 -14.5C-18.7 -22.2 -9.3 -28.2 0.3 -28.3C9.9 -28.5 19.7 -22.8 25.1 -14Z" fill="#0656EA"></path></g><g transform="translate(280 546)"><path d="M23.3 -15.3C27.5 -6.3 26.1 4 21.3 13.9C16.5 23.9 8.2 33.5 0 33.5C-8.3 33.5 -16.5 23.9 -21.8 13.7C-27 3.5 -29.2 -7.3 -25.1 -16.3C-21 -25.3 -10.5 -32.5 -0.4 -32.2C9.6 -32 19.2 -24.3 23.3 -15.3Z" fill="#0656EA"></path></g><g transform="translate(139 247)"><path d="M25.6 -15.3C31 -5.5 31.5 6.5 26.5 16.4C21.4 26.2 10.7 33.9 -0.7 34.3C-12 34.7 -24.1 27.8 -28.4 18.3C-32.6 8.9 -29.2 -3 -23.2 -13.1C-17.2 -23.3 -8.6 -31.7 0.8 -32.2C10.1 -32.6 20.3 -25.1 25.6 -15.3Z" fill="#0656EA"></path></g><g transform="translate(587 217)"><path d="M32 -18.7C36.9 -10 33.1 3.5 26.4 15.3C19.6 27.1 9.8 37.2 -2.8 38.8C-15.4 40.4 -30.9 33.6 -37.8 21.7C-44.8 9.8 -43.3 -7.2 -35.6 -17.6C-27.9 -27.9 -13.9 -31.7 -0.2 -31.6C13.5 -31.5 27.1 -27.5 32 -18.7Z" fill="#0656EA"></path></g><g transform="translate(177 809)"><path d="M33 -20.8C38.7 -9.1 36.5 5.3 29.7 17.5C22.9 29.7 11.5 39.6 0.2 39.5C-11.1 39.4 -22.2 29.3 -27.8 17.8C-33.4 6.4 -33.5 -6.5 -28 -18.1C-22.4 -29.6 -11.2 -39.8 1.2 -40.5C13.6 -41.2 27.3 -32.4 33 -20.8Z" fill="#0656EA"></path></g></g></svg>