<svg id="visual" viewBox="0 0 960 540" width="960" height="540" xmlns="http://www.w3.org/2000/svg" xmlns:xlink="http://www.w3.org/1999/xlink" version="1.1"><rect x="0" y="0" width="960" height="540" fill="#fff"></rect><defs><linearGradient id="grad1_0" x1="43.8%" y1="100%" x2="100%" y2="0%"><stop offset="14.444444444444446%" stop-color="#377bfa" stop-opacity="1"></stop><stop offset="85.55555555555554%" stop-color="#377bfa" stop-opacity="1"></stop></linearGradient></defs><defs><linearGradient id="grad1_1" x1="43.8%" y1="100%" x2="100%" y2="0%"><stop offset="14.444444444444446%" stop-color="#377bfa" stop-opacity="1"></stop><stop offset="85.55555555555554%" stop-color="#afbafe" stop-opacity="1"></stop></linearGradient></defs><defs><linearGradient id="grad1_2" x1="43.8%" y1="100%" x2="100%" y2="0%"><stop offset="14.444444444444446%" stop-color="#ffffff" stop-opacity="1"></stop><stop offset="85.55555555555554%" stop-color="#afbafe" stop-opacity="1"></stop></linearGradient></defs><defs><linearGradient id="grad2_0" x1="0%" y1="100%" x2="56.3%" y2="0%"><stop offset="14.444444444444446%" stop-color="#377bfa" stop-opacity="1"></stop><stop offset="85.55555555555554%" stop-color="#377bfa" stop-opacity="1"></stop></linearGradient></defs><defs><linearGradient id="grad2_1" x1="0%" y1="100%" x2="56.3%" y2="0%"><stop offset="14.444444444444446%" stop-color="#afbafe" stop-opacity="1"></stop><stop offset="85.55555555555554%" stop-color="#377bfa" stop-opacity="1"></stop></linearGradient></defs><defs><linearGradient id="grad2_2" x1="0%" y1="100%" x2="56.3%" y2="0%"><stop offset="14.444444444444446%" stop-color="#afbafe" stop-opacity="1"></stop><stop offset="85.55555555555554%" stop-color="#ffffff" stop-opacity="1"></stop></linearGradient></defs><g transform="translate(960, 540)"><path d="M-324 0C-323.7 -29.6 -323.4 -59.1 -311 -83.3C-298.6 -107.6 -274.1 -126.4 -257.2 -148.5C-240.3 -170.6 -231 -195.8 -214.3 -214.3C-197.5 -232.7 -173.2 -244.3 -151 -261.5C-128.8 -278.8 -108.7 -301.6 -83.9 -313C-59 -324.3 -29.5 -324.2 0 -324L0 0Z" fill="#d9dcff"></path><path d="M-216 0C-215.8 -19.7 -215.6 -39.4 -207.4 -55.6C-199.1 -71.7 -182.7 -84.3 -171.5 -99C-160.2 -113.7 -154 -130.5 -142.8 -142.8C-131.7 -155.1 -115.5 -162.9 -100.7 -174.4C-85.9 -185.8 -72.5 -201.1 -55.9 -208.6C-39.4 -216.2 -19.7 -216.1 0 -216L0 0Z" fill="#809afc"></path><path d="M-108 0C-107.9 -9.9 -107.8 -19.7 -103.7 -27.8C-99.5 -35.9 -91.4 -42.1 -85.7 -49.5C-80.1 -56.9 -77 -65.3 -71.4 -71.4C-65.8 -77.6 -57.7 -81.4 -50.3 -87.2C-42.9 -92.9 -36.2 -100.5 -28 -104.3C-19.7 -108.1 -9.8 -108.1 0 -108L0 0Z" fill="#377bfa"></path></g><g transform="translate(0, 0)"><path d="M324 0C326.6 30.7 329.3 61.3 313 83.9C296.6 106.4 261.4 120.9 239.9 138.5C218.4 156.1 210.7 176.9 198 198C185.2 219.1 167.4 240.4 146 252.9C124.6 265.3 99.7 268.8 74.8 279.2C49.9 289.5 24.9 306.8 0 324L0 0Z" fill="#d9dcff"></path><path d="M216 0C217.8 20.4 219.5 40.9 208.6 55.9C197.8 70.9 174.2 80.6 159.9 92.3C145.6 104.1 140.5 117.9 132 132C123.5 146 111.6 160.3 97.3 168.6C83.1 176.9 66.5 179.2 49.9 186.1C33.3 193 16.6 204.5 0 216L0 0Z" fill="#809afc"></path><path d="M108 0C108.9 10.2 109.8 20.4 104.3 28C98.9 35.5 87.1 40.3 80 46.2C72.8 52 70.2 59 66 66C61.7 73 55.8 80.1 48.7 84.3C41.5 88.4 33.2 89.6 24.9 93.1C16.6 96.5 8.3 102.3 0 108L0 0Z" fill="#377bfa"></path></g></svg>