<svg width="600" height="900" viewBox="0 0 600 900" fill="none" xmlns="http://www.w3.org/2000/svg">
<path d="M600 0H0V900H600V0Z" fill="white"/>
<path d="M248.5 900C244.4 844.9 240.3 789.9 275.2 765.5C310.2 741.1 384.2 747.4 419 719C453.8 690.6 449.3 627.5 472.9 593.3C496.6 559.1 548.3 553.8 600 548.5V900H248.5Z" fill="#D9DCFF"/>
<path d="M365.6 900C362.9 863.3 360.2 826.6 383.5 810.3C406.8 794.1 456.1 798.3 479.3 779.3C502.5 760.4 499.5 718.3 515.3 695.5C531.1 672.7 565.5 669.2 600 665.6V900H365.6Z" fill="#809AFC"/>
<path d="M482.8 900C481.5 881.6 480.1 863.3 491.7 855.2C503.4 847 528.1 849.1 539.7 839.7C551.3 830.2 549.8 809.2 557.6 797.8C565.5 786.4 582.8 784.6 600 782.8V900H482.8Z" fill="#377BFA"/>
</svg>
