<svg width="960" height="540" viewBox="0 0 960 540" fill="none" xmlns="http://www.w3.org/2000/svg">
<path d="M960 0H0V540H960V0Z" fill="white"/>
<path d="M636 540C636.3 510.4 636.6 480.9 649 456.7C661.4 432.4 685.9 413.6 702.8 391.5C719.7 369.4 729 344.2 745.7 325.7C762.5 307.3 786.8 295.7 809 278.5C831.2 261.2 851.3 238.4 876.1 227C901 215.7 930.5 215.8 960 216V540H636Z" fill="#D9DCFF"/>
<path d="M744 540C744.2 520.3 744.4 500.6 752.6 484.4C760.9 468.3 777.3 455.7 788.5 441C799.8 426.3 806 409.5 817.2 397.2C828.3 384.9 844.5 377.1 859.3 365.6C874.1 354.2 887.5 338.9 904.1 331.4C920.6 323.8 940.3 323.9 960 324V540H744Z" fill="#809AFC"/>
<path d="M852 540C852.1 530.1 852.2 520.3 856.3 512.2C860.5 504.1 868.6 497.9 874.3 490.5C879.9 483.1 883 474.7 888.6 468.6C894.2 462.4 902.3 458.6 909.7 452.8C917.1 447.1 923.8 439.5 932 435.7C940.3 431.9 950.2 431.9 960 432V540H852Z" fill="#377BFA"/>
</svg>
