<svg id="visual" viewBox="0 0 1440 540" width="1440" height="540" xmlns="http://www.w3.org/2000/svg" xmlns:xlink="http://www.w3.org/1999/xlink" version="1.1"><path d="M0 417L30 415.7C60 414.3 120 411.7 180 416.3C240 421 300 433 360 431.3C420 429.7 480 414.3 540 408.3C600 402.3 660 405.7 720 409.7C780 413.7 840 418.3 900 417.2C960 416 1020 409 1080 403.3C1140 397.7 1200 393.3 1260 393.8C1320 394.3 1380 399.7 1410 402.3L1440 405L1440 541L1410 541C1380 541 1320 541 1260 541C1200 541 1140 541 1080 541C1020 541 960 541 900 541C840 541 780 541 720 541C660 541 600 541 540 541C480 541 420 541 360 541C300 541 240 541 180 541C120 541 60 541 30 541L0 541Z" fill="#ed77b0"></path><path d="M0 457L30 453.3C60 449.7 120 442.3 180 438C240 433.7 300 432.3 360 435.8C420 439.3 480 447.7 540 453.2C600 458.7 660 461.3 720 463C780 464.7 840 465.3 900 463C960 460.7 1020 455.3 1080 447.2C1140 439 1200 428 1260 422.2C1320 416.3 1380 415.7 1410 415.3L1440 415L1440 541L1410 541C1380 541 1320 541 1260 541C1200 541 1140 541 1080 541C1020 541 960 541 900 541C840 541 780 541 720 541C660 541 600 541 540 541C480 541 420 541 360 541C300 541 240 541 180 541C120 541 60 541 30 541L0 541Z" fill="#db71c2"></path><path d="M0 447L30 453C60 459 120 471 180 473.7C240 476.3 300 469.7 360 470.3C420 471 480 479 540 483C600 487 660 487 720 486.7C780 486.3 840 485.7 900 483.2C960 480.7 1020 476.3 1080 474.2C1140 472 1200 472 1260 465.8C1320 459.7 1380 447.3 1410 441.2L1440 435L1440 541L1410 541C1380 541 1320 541 1260 541C1200 541 1140 541 1080 541C1020 541 960 541 900 541C840 541 780 541 720 541C660 541 600 541 540 541C480 541 420 541 360 541C300 541 240 541 180 541C120 541 60 541 30 541L0 541Z" fill="#be71d5"></path><path d="M0 497L30 494.5C60 492 120 487 180 489.8C240 492.7 300 503.3 360 502C420 500.7 480 487.3 540 479.2C600 471 660 468 720 469.5C780 471 840 477 900 479.3C960 481.7 1020 480.3 1080 482.7C1140 485 1200 491 1260 488.7C1320 486.3 1380 475.7 1410 470.3L1440 465L1440 541L1410 541C1380 541 1320 541 1260 541C1200 541 1140 541 1080 541C1020 541 960 541 900 541C840 541 780 541 720 541C660 541 600 541 540 541C480 541 420 541 360 541C300 541 240 541 180 541C120 541 60 541 30 541L0 541Z" fill="#9374e6"></path><path d="M0 496L30 497C60 498 120 500 180 500.2C240 500.3 300 498.7 360 502.7C420 506.7 480 516.3 540 519.8C600 523.3 660 520.7 720 518C780 515.3 840 512.7 900 512C960 511.3 1020 512.7 1080 511.3C1140 510 1200 506 1260 502.2C1320 498.3 1380 494.7 1410 492.8L1440 491L1440 541L1410 541C1380 541 1320 541 1260 541C1200 541 1140 541 1080 541C1020 541 960 541 900 541C840 541 780 541 720 541C660 541 600 541 540 541C480 541 420 541 360 541C300 541 240 541 180 541C120 541 60 541 30 541L0 541Z" fill="#4979f2"></path></svg>