<svg id="visual" viewBox="0 0 960 600" width="960" height="600" xmlns="http://www.w3.org/2000/svg" xmlns:xlink="http://www.w3.org/1999/xlink" version="1.1"><path d="M597 600L599 600L599 500L561 500L561 400L639 400L639 300L625 300L625 200L598 200L598 100L647 100L647 0L960 0L960 100L960 100L960 200L960 200L960 300L960 300L960 400L960 400L960 500L960 500L960 600L960 600Z" fill="#ed77b0"></path><path d="M619 600L635 600L635 500L671 500L671 400L633 400L633 300L683 300L683 200L685 200L685 100L704 100L704 0L960 0L960 100L960 100L960 200L960 200L960 300L960 300L960 400L960 400L960 500L960 500L960 600L960 600Z" fill="#db71c2"></path><path d="M697 600L729 600L729 500L735 500L735 400L771 400L771 300L757 300L757 200L720 200L720 100L752 100L752 0L960 0L960 100L960 100L960 200L960 200L960 300L960 300L960 400L960 400L960 500L960 500L960 600L960 600Z" fill="#be71d5"></path><path d="M805 600L821 600L821 500L770 500L770 400L808 400L808 300L810 300L810 200L775 200L775 100L845 100L845 0L960 0L960 100L960 100L960 200L960 200L960 300L960 300L960 400L960 400L960 500L960 500L960 600L960 600Z" fill="#9374e6"></path><path d="M895 600L910 600L910 500L876 500L876 400L863 400L863 300L872 300L872 200L903 200L903 100L895 100L895 0L960 0L960 100L960 100L960 200L960 200L960 300L960 300L960 400L960 400L960 500L960 500L960 600L960 600Z" fill="#4979f2"></path></svg>