<svg id="visual" viewBox="0 0 960 540" width="960" height="540" xmlns="http://www.w3.org/2000/svg" xmlns:xlink="http://www.w3.org/1999/xlink" version="1.1"><path d="M0 77L32 81.5C64 86 128 95 192 105.7C256 116.3 320 128.7 384 154.7C448 180.7 512 220.3 576 219.5C640 218.7 704 177.3 768 153C832 128.7 896 121.3 928 117.7L960 114L960 0L928 0C896 0 832 0 768 0C704 0 640 0 576 0C512 0 448 0 384 0C320 0 256 0 192 0C128 0 64 0 32 0L0 0Z" fill="#0066ff"></path><path d="M0 147L32 150.5C64 154 128 161 192 178C256 195 320 222 384 250C448 278 512 307 576 306.2C640 305.3 704 274.7 768 245.8C832 217 896 190 928 176.5L960 163L960 112L928 115.7C896 119.3 832 126.7 768 151C704 175.3 640 216.7 576 217.5C512 218.3 448 178.7 384 152.7C320 126.7 256 114.3 192 103.7C128 93 64 84 32 79.5L0 75Z" fill="#7789ff"></path><path d="M0 379L32 383.5C64 388 128 397 192 403.3C256 409.7 320 413.3 384 414.2C448 415 512 413 576 422.8C640 432.7 704 454.3 768 443.7C832 433 896 390 928 368.5L960 347L960 161L928 174.5C896 188 832 215 768 243.8C704 272.7 640 303.3 576 304.2C512 305 448 276 384 248C320 220 256 193 192 176C128 159 64 152 32 148.5L0 145Z" fill="#acafff"></path><path d="M0 422L32 428.3C64 434.7 128 447.3 192 457.3C256 467.3 320 474.7 384 475.5C448 476.3 512 470.7 576 474.2C640 477.7 704 490.3 768 479.7C832 469 896 435 928 418L960 401L960 345L928 366.5C896 388 832 431 768 441.7C704 452.3 640 430.7 576 420.8C512 411 448 413 384 412.2C320 411.3 256 407.7 192 401.3C128 395 64 386 32 381.5L0 377Z" fill="#d7d6ff"></path><path d="M0 541L32 541C64 541 128 541 192 541C256 541 320 541 384 541C448 541 512 541 576 541C640 541 704 541 768 541C832 541 896 541 928 541L960 541L960 399L928 416C896 433 832 467 768 477.7C704 488.3 640 475.7 576 472.2C512 468.7 448 474.3 384 473.5C320 472.7 256 465.3 192 455.3C128 445.3 64 432.7 32 426.3L0 420Z" fill="#ffffff"></path></svg>