<svg id="visual" viewBox="0 0 960 300" width="960" height="300" xmlns="http://www.w3.org/2000/svg" xmlns:xlink="http://www.w3.org/1999/xlink" version="1.1"><path d="M0 100L137 70L274 88L411 118L549 46L686 136L823 163L960 115L960 0L823 0L686 0L549 0L411 0L274 0L137 0L0 0Z" fill="#0656ea"></path><path d="M0 163L137 127L274 163L411 202L549 127L686 226L823 205L960 193L960 113L823 161L686 134L549 44L411 116L274 86L137 68L0 98Z" fill="#868af3"></path><path d="M0 268L137 232L274 268L411 256L549 244L686 274L823 256L960 244L960 191L823 203L686 224L549 125L411 200L274 161L137 125L0 161Z" fill="#c7c3fa"></path><path d="M0 301L137 301L274 301L411 301L549 301L686 301L823 301L960 301L960 242L823 254L686 272L549 242L411 254L274 266L137 230L0 266Z" fill="#ffffff"></path></svg>