<svg id="visual" viewBox="0 0 960 540" width="960" height="540" xmlns="http://www.w3.org/2000/svg" xmlns:xlink="http://www.w3.org/1999/xlink" version="1.1"><path d="M0 473L22.8 459.8C45.7 446.7 91.3 420.3 137 424.8C182.7 429.3 228.3 464.7 274 479.3C319.7 494 365.3 488 411.2 474C457 460 503 438 548.8 426.8C594.7 415.7 640.3 415.3 686 425.7C731.7 436 777.3 457 823 458C868.7 459 914.3 440 937.2 430.5L960 421L960 541L937.2 541C914.3 541 868.7 541 823 541C777.3 541 731.7 541 686 541C640.3 541 594.7 541 548.8 541C503 541 457 541 411.2 541C365.3 541 319.7 541 274 541C228.3 541 182.7 541 137 541C91.3 541 45.7 541 22.8 541L0 541Z" fill="#377BFA" stroke-linecap="round" stroke-linejoin="miter"></path></svg>